:SAMPLES-PER-SECOND 24
:FULLY-SPECIFIED
:DEGREES
162
root  -1.36237 40.9394 24.9817 174.181 71.5965 177.69
RightUpLeg  5.40177 -16.3435 -22.0255
RightLeg  15.9297 0.45028 0.217226
RightFoot  14.0323 -3.4186 15.525
RightToes  -1.74623e-010 0 -2.59999e-017
Spine  2.20708 3.43169 6.72931
Spine1  12.8899 5.38991 -5.84171
HEad  -23.104 53.2444 -28.4679
LeftShoulder1  1.92244 -3.04823 -23.0709
LeftArm  10.71 9.64058 -45.5138
LeftForeArm  12.3726 -10.1188 -12.3285
LeftHand  -0.0698896 3.3871 2.73454
RightShoulder  2.87449 5.29466 26.6623
RightArm  12.8537 -4.10329 50.212
RightForeArm  146.268 61.399 159.605
RightHand  -0.0433189 -4.98683 -5.95747
LeftUpLeg  -4.75936 7.87718 13.5336
LeftLeg  17.0734 -9.51535 -2.99355
LeftFoot  11.3842 3.50761 -17.7209
LeftToes  -6.27559e-011 -2.10356e-011 8.24929e-012
163
root  -1.65851 40.9635 24.8236 172.277 71.6985 176.232
RightUpLeg  4.85823 -16.5232 -22.1159
RightLeg  22.0884 0.837979 0.163541
RightFoot  13.2715 -2.34032 11.0997
RightToes  -1.74623e-010 0 -2.59999e-017
Spine  2.65243 3.31114 5.80616
Spine1  13.9419 5.27991 -5.94466
HEad  -24.7589 52.9179 -29.0571
LeftShoulder1  1.80378 -3.19464 -20.5041
LeftArm  18.1452 11.7123 -47.1021
LeftForeArm  7.35503 -13.9451 -10.7163
LeftHand  -0.115565 3.12849 5.25364
RightShoulder  2.5076 4.77948 24.1531
RightArm  13.2836 -2.77066 50.6419
RightForeArm  146.136 58.5268 161.672
RightHand  -0.0613385 -4.36107 -4.54182
LeftUpLeg  -5.21019 3.18657 12.8966
LeftLeg  20.0687 -5.9417 -2.05353
LeftFoot  10.442 2.42845 -12.8832
LeftToes  -6.27559e-011 -2.10356e-011 8.24929e-012
164
root  -2.02328 40.3513 24.7346 170.015 72.8989 174.352
RightUpLeg  3.26879 -15.5239 -21.9339
RightLeg  29.1156 1.21349 0.501454
RightFoot  9.6352 -1.67331 9.3795
RightToes  -1.74623e-010 0 -2.59999e-017
Spine  3.87877 3.82916 5.04038
Spine1  13.9703 5.8048 -6.42857
HEad  -24.4563 52.5385 -28.5665
LeftShoulder1  1.74049 -3.19783 -19.4773
LeftArm  26.3598 12.3789 -46.7185
LeftForeArm  -0.843678 -18.3589 -8.014
LeftHand  -0.12291 3.93578 8.68978
RightShoulder  2.31731 4.42967 23.0375
RightArm  10.3528 1.16264 49.8211
RightForeArm  145.419 56.3246 163.006
RightHand  -0.0476878 -4.90973 -6.40141
LeftUpLeg  -5.74228 3.15104 13.0615
LeftLeg  24.816 -4.09849 -1.72789
LeftFoot  8.60036 1.8157 -10.6044
LeftToes  -6.27559e-011 -2.10356e-011 8.24929e-012
165
root  -2.33996 39.1903 24.586 168.819 74.3905 173.106
RightUpLeg  1.59334 -15.5914 -22.138
RightLeg  34.3852 -0.0964027 -0.314645
RightFoot  1.59931 -1.55745 14.0494
RightToes  -1.74623e-010 0 -2.59999e-017
Spine  4.65979 4.3668 4.81018
Spine1  13.0921 6.29729 -6.79114
HEad  -23.3277 52.382 -27.1952
LeftShoulder1  1.75356 -3.19916 -19.6806
LeftArm  29.0906 13.1252 -44.7637
LeftForeArm  -5.52463 -22.3056 -5.58454
LeftHand  -0.126195 4.28262 11.8497
RightShoulder  2.29909 4.4045 22.8919
RightArm  4.45587 6.70324 48.0427
RightForeArm  142.625 56.6032 162.618
RightHand  -0.0330418 -5.22182 -8.44925
LeftUpLeg  -6.30813 5.11871 13.8262
LeftLeg  29.23 -4.50818 -2.37992
LeftFoot  1.23541 1.5358 -14.1269
LeftToes  -6.27559e-011 -2.10356e-011 8.24929e-012
166
root  -2.67592 37.6464 24.3919 167.479 74.8651 171.377
RightUpLeg  1.06307 -16.2818 -23.7736
RightLeg  37.1651 0.477961 0.138971
RightFoot  -10.2679 -0.252038 20.6685
RightToes  -1.74623e-010 0 -2.59999e-017
Spine  4.62746 4.4915 4.07051
Spine1  13.0716 6.13435 -6.21353
HEad  -24.465 52.0584 -27.8917
LeftShoulder1  1.73852 -3.04843 -20.0793
LeftArm  27.8865 11.551 -42.9284
LeftForeArm  -6.89456 -23.993 -5.34868
LeftHand  -0.154509 4.10793 13.0182
RightShoulder  2.22336 4.233 22.5354
RightArm  -2.69742 14.1955 46.4128
RightForeArm  138.469 59.404 160.415
RightHand  0.0159 -5.78426 -10.7983
LeftUpLeg  -8.84222 6.40809 13.6331
LeftLeg  35.5044 -4.90481 -3.38004
LeftFoot  -10.8104 0.161001 -16.2363
LeftToes  -6.27559e-011 -2.10356e-011 8.24929e-012
167
root  -3.0836 36.3641 24.2214 166.073 74.4118 169.54
RightUpLeg  1.1251 -16.923 -25.8227
RightLeg  38.2543 2.68232 2.00532
RightFoot  -19.2696 1.43867 22.51
RightToes  -1.74623e-010 0 -2.59999e-017
Spine  4.37659 4.25259 3.26415
Spine1  14.6641 5.65821 -5.27952
HEad  -29.5806 51.1842 -32.4093
LeftShoulder1  1.72325 -2.69592 -21.4302
LeftArm  25.0238 6.62741 -41.4915
LeftForeArm  -6.23448 -22.1803 -5.68137
LeftHand  -0.168877 4.00312 13.0392
RightShoulder  2.16897 4.00088 22.72
RightArm  -7.8215 20.6791 46.3494
RightForeArm  137.727 63.099 157.337
RightHand  0.183326 -6.9704 -14.8243
LeftUpLeg  -12.6671 6.99582 12.6809
LeftLeg  42.0747 -4.51055 -3.94187
LeftFoot  -17.9305 -0.746986 -14.8367
LeftToes  -6.27559e-011 -2.10356e-011 8.24929e-012
168
root  -3.33191 36.2174 24.0326 164.814 74.6869 167.946
RightUpLeg  0.780485 -16.6997 -26.5706
RightLeg  37.6643 3.41418 2.56467
RightFoot  -20.1728 1.60989 22.37
RightToes  -1.74623e-010 0 -2.59999e-017
Spine  4.17627 4.13221 4.23027
Spine1  16.2421 6.07351 -6.54377
HEad  -34.233 50.066 -36.419
LeftShoulder1  1.72491 -2.5336 -22.2468
LeftArm  16.0216 3.37201 -42.1337
LeftForeArm  -2.37305 -18.4469 -7.68254
LeftHand  0.0486957 5.72282 19.8395
RightShoulder  2.37778 4.34043 24.2055
RightArm  -7.46242 19.7096 48.8465
RightForeArm  137.923 65.688 154.76
RightHand  0.502006 -8.29017 -20.5037
LeftUpLeg  -13.629 7.26934 11.8292
LeftLeg  43.0206 -4.13509 -3.71165
LeftFoot  -17.9942 -0.755323 -14.7736
LeftToes  -6.27559e-011 -2.10356e-011 8.24929e-012
